# xmcd
#
# Track frame offsets:
#  150
#  11535
#  24570
#  41855
#  55505
#  66975
#  80220
#  94763
#  107518
#  121568
#  135297
#  149187
#  159989
#  170599
#  181392
#  197073
#  216790
#  227532
#  238778
#
# Disc length: 3323 seconds
#
# Revision: 0
# Processed by: cddbd v1.5.1PL2 Copyright (c) Steve Scherf et al.
# Submitted via: Collectorz.com_Music_Collector 6.11
#
DISCID=030cf913
DTITLE=Alexis Korner's Blues Incorporated - R'n'b from the Marquee: Expanded Edition
DYEAR=2006
DGENRE=
TTITLE0=Gotta Move
TTITLE1=Rain Is Such A Lonesome Sound
TTITLE2=I Got My Brand On You
TTITLE3=Spooky But Nice
TTITLE4=Keep Your Hands Off
TTITLE5=I Wanna Put A Tiger In Your Tank
TTITLE6=I Got My Mojo Working
TTITLE7=Finkle's Cafe
TTITLE8=Hoochie Coochie
TTITLE9=Down Town
TTITLE10=How Long How Long Blues
TTITLE11=I Though I Heard That Train Whistle Blow
TTITLE12=She Fooled Me
TTITLE13=I'm Built For Comfort
TTITLE14=Hoochie Coochie Man
TTITLE15=Night Time Is The Right Time
TTITLE16=Everything She Needs
TTITLE17=Up-Town
TTITLE18=Blaydon Races (With Nancy Spain)
EXTD=
EXTT0=
EXTT1=
EXTT2=
EXTT3=
EXTT4=
EXTT5=
EXTT6=
EXTT7=
EXTT8=
EXTT9=
EXTT10=
EXTT11=
EXTT12=
EXTT13=
EXTT14=
EXTT15=
EXTT16=
EXTT17=
EXTT18=
PLAYORDER=
